{"title":"Brotherhood 2010 BRRip x264 Feel-Free","uid":6051975,"size":1510807008,"categoryP":"video","categoryS":"movies","magnet":"?xt=urn:btih:278b89ffb2b057697f3ea92096201786244382a7&amp;dn=Brotherhood+2010+BRRip+x264+Feel-Free&amp;tr=udp%3A%2F%2Ftracker.openbittorrent.com%3A80&amp;tr=udp%3A%2F%2Fopen.demonii.com%3A1337&amp;tr=udp%3A%2F%2Ftracker.coppersurfer.tk%3A6969&amp;tr=udp%3A%2F%2Fexodus.desync.com%3A6969","seeders":0,"leechers":1,"uploader":"neon","files":8,"time":1292769938,"description":"Genre:Drama\nLanguage:English\n &lt;a href=&quot; http://www.imdb.com/title/tt1273241/&quot; rel=&quot;nofollow&quot; target=&quot;_NEW&quot;&gt; http://www.imdb.com/title/tt1273241/&lt;/a&gt;\nSource:720p DTS x264-CHD\n\n\nFormat : Matroska\nFile size : 1.40 GiB\nDuration : 1h 19mn\nOverall bit rate : 2 536 Kbps\n\n\nVideo\nCodec ID : V_MPEG4/ISO/AVC\nDuration : 1h 19mn\nBit rate : 2 200 Kbps\nWidth : 1 280 pixels\nHeight : 546 pixels\nDisplay aspect ratio : 2.35:1\nFrame rate mode : Variable\nFrame rate : 23.976 fps\nColor space : YUV\nChroma subsampling : 4:2:0\nBit depth : 8 bits\nScan type : Progressive\nBits/(Pixel*Frame) : 0.131\nStream size : 1.16 GiB (83%)\nWriting library : x264\n\n\nAudio\nID : 2\nFormat : AC-3\nFormat/Info : Audio Coding 3\nMode extension : CM (complete main)\nCodec ID : A_AC3\nDuration : 1h 19mn\nBit rate mode : Constant\nBit rate : 384 Kbps\nChannel(s) : 6 channels\nChannel positions : Front: L C R, Side: L R, LFE\nSampling rate : 48.0 KHz\nBit depth : 16 bits\nVideo delay : -1mn 5s\nStream size : 217 MiB (15%)\nLanguage : English\n\n\n\nPlot:\nAdam Buckley finds himself in the middle of a convenience store robbery during his last night as a pledge for a college fraternity\n\n","torrent":{"xt":"urn:btih:278b89ffb2b057697f3ea92096201786244382a7","amp;dn":"Brotherhood+2010+BRRip+x264+Feel-Free","amp;tr":["udp%3A%2F%2Ftracker.openbittorrent.com%3A80","udp%3A%2F%2Fopen.demonii.com%3A1337","udp%3A%2F%2Ftracker.coppersurfer.tk%3A6969","udp%3A%2F%2Fexodus.desync.com%3A6969"],"infoHash":"278b89ffb2b057697f3ea92096201786244382a7","infoHashBuffer":{"type":"Buffer","data":[39,139,137,255,178,176,87,105,127,62,169,32,150,32,23,134,36,67,130,167]},"announce":[],"urlList":[]}}